<svg width="20" height="20" viewBox="0 0 20 20" fill="none" xmlns="http://www.w3.org/2000/svg">
<g clip-path="url(#clip0_8854_97235)">
<path d="M13.333 1.04199C13.6782 1.04199 13.958 1.32181 13.958 1.66699V2.31738C15.2381 2.42387 16.2535 2.86737 16.9688 3.6377C17.7886 4.52091 18.1249 5.73754 18.125 7.08301V14.167C18.1249 15.5125 17.7886 16.7291 16.9688 17.6123C16.1407 18.504 14.9105 18.958 13.333 18.958H6.66699C5.08953 18.958 3.85926 18.504 3.03125 17.6123C2.21138 16.7291 1.87505 15.5125 1.875 14.167V7.08301C1.87505 5.73754 2.21138 4.52091 3.03125 3.6377C3.74655 2.86737 4.76193 2.42387 6.04199 2.31738V1.66699C6.04199 1.32181 6.32181 1.04199 6.66699 1.04199C7.01202 1.04217 7.29199 1.32192 7.29199 1.66699V2.29199H12.708V1.66699C12.708 1.32192 12.988 1.04217 13.333 1.04199ZM3.125 14.167C3.12505 15.321 3.41337 16.1877 3.94727 16.7627C4.47343 17.3293 5.32786 17.708 6.66699 17.708H13.333C14.6721 17.708 15.5266 17.3293 16.0527 16.7627C16.5866 16.1877 16.8749 15.321 16.875 14.167V8.2002H3.125V14.167ZM6.91992 13.083C7.38016 13.083 7.75293 13.4568 7.75293 13.917C7.75276 14.3771 7.38005 14.75 6.91992 14.75H6.91211C6.45213 14.7498 6.07927 14.377 6.0791 13.917C6.0791 13.4569 6.45202 13.0832 6.91211 13.083H6.91992ZM6.91992 10.583C7.38016 10.583 7.75293 10.9568 7.75293 11.417C7.75276 11.8771 7.38005 12.25 6.91992 12.25H6.91211C6.45213 12.2498 6.07927 11.877 6.0791 11.417C6.0791 10.9569 6.45202 10.5832 6.91211 10.583H6.91992ZM10.0039 10.583C10.4641 10.583 10.8379 10.9568 10.8379 11.417C10.8377 11.8771 10.464 12.25 10.0039 12.25H9.99707C9.53694 12.25 9.16326 11.8771 9.16309 11.417C9.16309 10.9568 9.53683 10.583 9.99707 10.583H10.0039ZM7.29199 4.16699C7.29182 4.51191 7.01191 4.79182 6.66699 4.79199C6.32192 4.79199 6.04217 4.51202 6.04199 4.16699V3.57227C5.05442 3.67255 4.3865 4.01434 3.94727 4.4873C3.43406 5.03998 3.15039 5.86233 3.12891 6.9502H16.8711C16.8496 5.86233 16.5659 5.03998 16.0527 4.4873C15.6135 4.01434 14.9456 3.67255 13.958 3.57227V4.16699C13.9578 4.51202 13.6781 4.79199 13.333 4.79199C12.9881 4.79182 12.7082 4.51191 12.708 4.16699V3.54199H7.29199V4.16699Z" fill="#014088" fill-opacity="0.5"/>
</g>
<defs>
<clipPath id="clip0_8854_97235">
<rect width="20" height="20" fill="white"/>
</clipPath>
</defs>
</svg>
