<svg width="20" height="20" viewBox="0 0 20 20" fill="none" xmlns="http://www.w3.org/2000/svg">
<path d="M15.749 6.99316C16.0933 7.01557 16.3543 7.31288 16.332 7.65723L15.79 16.0518L15.7891 16.0674C15.7671 16.3809 15.7433 16.7261 15.6787 17.0469C15.6117 17.3795 15.4932 17.7305 15.2539 18.042C14.7529 18.6942 13.9003 18.958 12.6748 18.958H7.3252C6.09973 18.958 5.24707 18.6942 4.74609 18.042C4.5069 17.7305 4.38926 17.3795 4.32227 17.0469C4.25766 16.7261 4.23289 16.3809 4.21094 16.0674L4.20996 16.0488L3.66797 7.65723C3.64573 7.31277 3.90749 7.0154 4.25195 6.99316C4.59617 6.97117 4.89271 7.23195 4.91504 7.57617L5.45703 15.9648V15.9658C5.48054 16.3013 5.5002 16.5679 5.54688 16.7998C5.59234 17.0255 5.65584 17.1741 5.7373 17.2803C5.87799 17.4634 6.22567 17.708 7.3252 17.708H12.6748C13.7743 17.708 14.122 17.4634 14.2627 17.2803C14.3442 17.1741 14.4076 17.0256 14.4531 16.7998C14.4998 16.5679 14.5195 16.3013 14.543 15.9658V15.9648L15.085 7.57617C15.1073 7.2318 15.4046 6.97093 15.749 6.99316ZM11.3828 13.125C11.728 13.125 12.0078 13.4048 12.0078 13.75C12.0078 14.0952 11.728 14.375 11.3828 14.375H8.6084C8.26322 14.375 7.9834 14.0952 7.9834 13.75C7.9834 13.4048 8.26322 13.125 8.6084 13.125H11.3828ZM12.083 9.79199C12.4282 9.79199 12.708 10.0718 12.708 10.417C12.7078 10.762 12.4281 11.042 12.083 11.042H7.91602C7.57113 11.0418 7.29119 10.7619 7.29102 10.417C7.29102 10.072 7.57103 9.79221 7.91602 9.79199H12.083ZM11.0918 1.04199C11.8707 1.04203 12.4726 1.21285 12.8652 1.66504C13.2045 2.05605 13.287 2.56652 13.3418 2.90723C13.3445 2.92381 13.347 2.94031 13.3496 2.95605L13.5332 4.03711C13.5343 4.04347 13.5333 4.0503 13.5342 4.05664C14.8787 4.12678 16.2222 4.2286 17.5615 4.36133C17.905 4.39541 18.1561 4.70148 18.1221 5.04492C18.088 5.38831 17.7818 5.63932 17.4385 5.60547C14.6834 5.33244 11.9116 5.19141 9.14941 5.19141C7.52065 5.19142 5.89177 5.27393 4.2627 5.43848H4.26074L2.56055 5.60547C2.21712 5.639 1.9116 5.38739 1.87793 5.04395C1.84446 4.70067 2.09524 4.39517 2.43848 4.36133L4.1377 4.19434C4.91526 4.11581 5.69306 4.05565 6.4707 4.01367L6.65039 2.94629C6.65357 2.92743 6.65685 2.90769 6.66016 2.8877C6.71753 2.54117 6.80181 2.03274 7.14062 1.64844C7.53568 1.20046 8.13828 1.04199 8.9082 1.04199H11.0918ZM8.9082 2.29199C8.27069 2.29199 8.11874 2.42865 8.07812 2.47461C8.00139 2.56163 7.95783 2.70802 7.88281 3.15332L7.74609 3.96191C8.21386 3.94868 8.68163 3.94141 9.14941 3.94141C10.1848 3.94141 11.2216 3.96054 12.2578 3.99902L12.1162 3.15918C12.0465 2.73168 12.0028 2.57768 11.9219 2.48438C11.8771 2.43275 11.7206 2.29203 11.0918 2.29199H8.9082Z" fill="#E41D1D"/>
</svg>
