<svg width="22" height="22" viewBox="0 0 22 22" fill="none" xmlns="http://www.w3.org/2000/svg">
<g opacity="0.8">
<path d="M11.0186 1.19141C14.7281 1.19165 17.7643 4.229 17.7744 7.93652V9.86328C17.7744 10.0944 17.8242 10.4239 17.9189 10.7686C18.0139 11.1138 18.1389 11.4234 18.2588 11.6221L18.2598 11.623L19.4248 13.5674C20.3029 15.0355 19.6054 16.9414 17.9766 17.4844L17.5527 17.6211C16.5761 17.9242 15.5833 18.1565 14.582 18.3203C14.1193 19.8607 12.686 20.9912 11 20.9912C9.97341 20.9912 9.03099 20.5632 8.35938 19.8916C7.92818 19.4604 7.59756 18.9175 7.41602 18.3125C6.28577 18.125 5.16664 17.8494 4.06934 17.4844H4.06836C3.24066 17.2084 2.62924 16.632 2.35645 15.8936C2.08381 15.1554 2.17309 14.3192 2.62012 13.5684L2.62109 13.5664L3.78516 11.623L3.78613 11.6221C3.90649 11.4226 4.03133 11.1147 4.12598 10.7715C4.22043 10.4288 4.27146 10.0994 4.27148 9.86328V7.93848C4.27148 4.21076 7.29084 1.19141 11.0186 1.19141ZM9.00977 18.5166C9.10298 18.6623 9.21071 18.7976 9.33203 18.9189C9.76042 19.3473 10.3583 19.6162 11 19.6162C11.8315 19.6162 12.5662 19.1767 12.9883 18.5205C11.6647 18.639 10.3332 18.638 9.00977 18.5166ZM11.0186 2.47461C7.9996 2.47461 5.55469 4.91953 5.55469 7.93848V9.86328C5.55467 10.2504 5.47727 10.6999 5.36328 11.1133C5.24949 11.5259 5.08593 11.9521 4.88574 12.2842H4.88477L3.72266 14.2246V14.2256C3.45522 14.6752 3.43458 15.1083 3.56055 15.4492C3.68654 15.79 3.98253 16.1026 4.47461 16.2666C8.72452 17.6802 13.3214 17.6802 17.5713 16.2666C18.4171 15.9845 18.783 14.994 18.3232 14.2256L17.1602 12.2842L17.0166 12.0176C16.8806 11.7373 16.7668 11.419 16.6816 11.1094C16.5679 10.6958 16.4903 10.2462 16.4902 9.86328V7.93848C16.4813 4.93693 14.0182 2.47485 11.0186 2.47461ZM11 5.21582C11.3797 5.21584 11.6875 5.52364 11.6875 5.90332V8.95508C11.6875 9.33476 11.3797 9.64255 11 9.64258C10.6203 9.64258 10.3125 9.33477 10.3125 8.95508V5.90332C10.3125 5.52362 10.6203 5.21582 11 5.21582Z" fill="white"/>
</g>
</svg>
