<svg width="28" height="28" viewBox="0 0 28 28" fill="none" xmlns="http://www.w3.org/2000/svg">
<circle cx="14" cy="14" r="14" fill="white"/>
<rect width="17" height="17" transform="translate(5 6)" fill="white"/>
<path d="M13.623 14.8096C14.9887 14.8096 16.3817 15.1523 17.458 15.8711C18.4255 16.5151 18.9795 17.4182 18.9795 18.3896C18.9795 19.361 18.4251 20.2657 17.458 20.9131L17.252 21.0439C16.2041 21.677 14.8982 21.9805 13.6172 21.9805C12.2511 21.9804 10.8569 21.6352 9.77734 20.9131C8.80973 20.2691 8.25488 19.366 8.25488 18.3945C8.25504 17.4234 8.80956 16.5194 9.77637 15.8721L9.77832 15.8701C10.861 15.1523 12.2571 14.8096 13.623 14.8096ZM13.623 15.8721C12.4183 15.8721 11.2394 16.1779 10.3672 16.7559C9.62105 17.2557 9.31754 17.8592 9.31738 18.3945C9.31738 18.9298 9.62004 19.5329 10.3662 20.0293H10.3672C11.2354 20.6102 12.4124 20.9179 13.6172 20.918C14.822 20.918 15.9989 20.6102 16.8672 20.0293C17.614 19.5293 17.917 18.9252 17.917 18.3896C17.917 17.8544 17.6143 17.2523 16.8682 16.7559L16.8672 16.7549C16.0028 16.1777 14.8282 15.8721 13.623 15.8721ZM13.5 6.88574C15.5288 6.88574 17.1767 8.53277 17.1768 10.5615V10.5635C17.1685 12.547 15.605 14.164 13.6318 14.2305C13.6082 14.2313 13.584 14.2309 13.5605 14.2285C13.5264 14.2251 13.4752 14.2242 13.4277 14.2285C13.406 14.2305 13.3841 14.2312 13.3623 14.2305C11.3894 14.1642 9.82422 12.5472 9.82422 10.5615C9.8243 8.53368 11.4635 6.88595 13.5 6.88574ZM13.5 7.94824C12.0519 7.94845 10.8868 9.11892 10.8867 10.5615C10.8867 11.9661 11.9838 13.1064 13.3691 13.168C13.4532 13.1621 13.5422 13.1609 13.626 13.167C15.0099 13.1047 16.1078 11.9662 16.1143 10.5605C16.1137 9.11904 14.9416 7.94824 13.5 7.94824Z" fill="#4A39A3"/>
</svg>
