<svg width="22" height="22" viewBox="0 0 22 22" fill="none" xmlns="http://www.w3.org/2000/svg">
<path d="M12.1499 0.25C12.832 0.25 13.5232 0.495632 14.0962 0.851562C14.6693 1.2076 15.1938 1.71677 15.4995 2.32129L15.5015 2.32617L16.2183 3.76953C16.3737 4.06483 16.68 4.25 17.0005 4.25C19.6015 4.25019 21.6664 6.44399 21.4985 9.03809L20.979 17.2969C20.9071 18.4369 20.5615 19.5632 19.769 20.4102C18.9622 21.2724 17.781 21.75 16.2397 21.75H5.76025C4.21924 21.75 3.03614 21.2721 2.22803 20.4102C1.43434 19.5635 1.08887 18.4378 1.02197 17.2959L1.021 17.2939L0.501465 9.03809C0.333997 6.4442 2.39958 4.25 5.00049 4.25C5.32086 4.24987 5.62637 4.06472 5.78174 3.76953L6.50049 2.32129C6.80624 1.71652 7.33176 1.20779 7.90674 0.851562C8.4817 0.495369 9.17406 0.250068 9.85986 0.25H12.1499ZM9.85986 1.75C9.51596 1.75007 9.09399 1.87998 8.69678 2.12598C8.30024 2.37165 7.99493 2.69157 7.84033 2.99609L7.11572 4.45508C6.71038 5.23682 5.89808 5.74987 5.00049 5.75C3.26181 5.75 1.88674 7.21584 1.99854 8.94141V8.94336L2.51904 17.2061C2.57247 18.1233 2.84207 18.872 3.32275 19.3848C3.78966 19.8826 4.54155 20.25 5.76025 20.25H16.2397C17.4584 20.25 18.2077 19.8824 18.6733 19.3848C19.1534 18.8717 19.4238 18.1229 19.4819 17.2031L20.0015 8.94141C20.1133 7.21594 18.739 5.75019 17.0005 5.75C16.1028 5.75 15.2897 5.23691 14.8843 4.45508L14.8784 4.44336L14.1597 2.99609C14.005 2.69148 13.6999 2.37177 13.3042 2.12598C12.9073 1.87945 12.4877 1.75 12.1499 1.75H9.85986ZM10.9995 9.75C13.2037 9.75 14.9995 11.5458 14.9995 13.75C14.9995 15.9542 13.2037 17.75 10.9995 17.75C8.79552 17.7497 6.99951 15.9541 6.99951 13.75C6.99951 11.5459 8.79552 9.75026 10.9995 9.75ZM10.9995 11.25C9.62394 11.2503 8.49951 12.3744 8.49951 13.75C8.49951 15.1256 9.62394 16.2497 10.9995 16.25C12.3753 16.25 13.4995 15.1258 13.4995 13.75C13.4995 12.3742 12.3753 11.25 10.9995 11.25ZM12.4995 6.25C12.9137 6.25 13.2495 6.58579 13.2495 7C13.2495 7.41421 12.9137 7.75 12.4995 7.75H9.49951C9.08552 7.74974 8.74951 7.41405 8.74951 7C8.74951 6.58595 9.08552 6.25026 9.49951 6.25H12.4995Z" fill="#333333" fill-opacity="0.6"/>
</svg>
