<svg width="22" height="22" viewBox="0 0 22 22" fill="none" xmlns="http://www.w3.org/2000/svg">
<path d="M15.5049 7.15234C17.4168 7.31699 18.9146 7.9053 19.9082 9.12988C20.885 10.3338 21.2607 12.0168 21.2607 14.1104V14.2402C21.2607 16.5492 20.8024 18.3606 19.5869 19.5762C18.3713 20.7918 16.5592 21.25 14.25 21.25H7.74023C5.43119 21.25 3.61989 20.7917 2.4043 19.5762C1.18872 18.3606 0.730507 16.5493 0.730469 14.2402V14.1104C0.730469 12.0319 1.10136 10.3587 2.0625 9.15723C3.04091 7.93446 4.51634 7.33879 6.40039 7.16309C6.81282 7.12464 7.17835 7.42839 7.2168 7.84082C7.25498 8.25306 6.95232 8.61782 6.54004 8.65625C4.88449 8.81058 3.86491 9.30533 3.2334 10.0947C2.5846 10.9058 2.23047 12.1689 2.23047 14.1104V14.2402C2.23051 16.4009 2.66801 17.7188 3.46484 18.5156C4.26169 19.3124 5.57957 19.75 7.74023 19.75H14.25C16.4108 19.75 17.7295 19.3125 18.5264 18.5156C19.3231 17.7188 19.7607 16.4008 19.7607 14.2402V14.1104C19.7607 12.1542 19.4012 10.8863 18.7432 10.0752C18.1018 9.28478 17.064 8.79282 15.376 8.64746C14.9635 8.61187 14.658 8.24845 14.6934 7.83594C14.7289 7.42325 15.0922 7.11681 15.5049 7.15234ZM10.4697 0.969727C10.7626 0.676899 11.2374 0.677029 11.5303 0.969727L14.8809 4.31934C15.1737 4.61213 15.1735 5.08697 14.8809 5.37988C14.588 5.67278 14.1132 5.67278 13.8203 5.37988L11.75 3.30957V14C11.75 14.4142 11.4142 14.75 11 14.75C10.5858 14.75 10.25 14.4142 10.25 14V3.31055L8.18066 5.37988C7.88777 5.67278 7.41301 5.67278 7.12012 5.37988C6.82742 5.08697 6.82729 4.61216 7.12012 4.31934L10.4697 0.969727Z" fill="#333333" fill-opacity="0.6"/>
</svg>
