<svg width="20" height="20" viewBox="0 0 20 20" fill="none" xmlns="http://www.w3.org/2000/svg">
<path d="M10 2.47461C13.2067 2.47466 16.1267 4.36587 18.1191 7.49805C18.573 8.20981 18.7792 9.12139 18.7793 9.99512C18.7793 10.869 18.5731 11.7813 18.1191 12.4932C16.1267 15.6253 13.2067 17.5166 10 17.5166C6.79321 17.5166 3.8733 15.6254 1.88086 12.4932C1.42682 11.7813 1.2207 10.8691 1.2207 9.99512C1.22077 9.12106 1.42662 8.20896 1.88086 7.49707C3.87329 4.3651 6.79335 2.47461 10 2.47461ZM10 3.72461C7.32346 3.72461 4.75978 5.30116 2.93555 8.16895H2.93457C2.63915 8.63178 2.47078 9.29465 2.4707 9.99512C2.4707 10.6957 2.63908 11.3593 2.93457 11.8223H2.93555C4.75978 14.6901 7.32346 16.2666 10 16.2666C12.6765 16.2666 15.2403 14.69 17.0645 11.8223L17.1699 11.6387C17.4 11.1922 17.5293 10.6079 17.5293 9.99512C17.5292 9.29465 17.3599 8.63178 17.0645 8.16895L16.8906 7.90332C15.0793 5.20386 12.5928 3.72466 10 3.72461ZM10 6.3916C11.9951 6.39164 13.6084 8.00484 13.6084 10C13.6083 11.995 11.9951 13.6084 10 13.6084C8.00491 13.6084 6.39174 11.9951 6.3916 10C6.3916 8.00482 8.00482 6.3916 10 6.3916ZM10 7.6416C8.69518 7.6416 7.6416 8.69518 7.6416 10C7.64174 11.3047 8.69526 12.3584 10 12.3584C11.3047 12.3584 12.3583 11.3047 12.3584 10C12.3584 8.6952 11.3048 7.64164 10 7.6416Z" fill="#333333"/>
</svg>
