<svg width="109" height="41" viewBox="0 0 109 41" fill="none" xmlns="http://www.w3.org/2000/svg">
<mask id="mask0_8733_45051" style="mask-type:luminance" maskUnits="userSpaceOnUse" x="0" y="0" width="109" height="41">
<path d="M109 0H0V40.9366H109V0Z" fill="white"/>
</mask>
<g mask="url(#mask0_8733_45051)">
<mask id="mask1_8733_45051" style="mask-type:luminance" maskUnits="userSpaceOnUse" x="39" y="9" width="18" height="20">
<path fill-rule="evenodd" clip-rule="evenodd" d="M49.0921 28.215C47.8674 28.2245 46.6508 28.0111 45.4991 27.5846C44.4142 27.1763 43.4217 26.5464 42.5821 25.7333C41.7468 24.9097 41.0923 23.9137 40.6621 22.8114C40.1849 21.5908 39.9471 20.2861 39.9621 18.9716C39.9485 17.6561 40.1863 16.3507 40.6621 15.1286C41.1171 13.978 41.795 12.9336 42.6551 12.0584C43.515 11.1952 44.5421 10.5258 45.6701 10.0934C46.871 9.61821 48.1486 9.37865 49.4361 9.38728C50.3311 9.37729 51.2228 9.50072 52.0831 9.75366C52.7814 9.94938 53.4577 10.2193 54.1011 10.5591L54.8631 9.86624H55.9341L56.0451 16.3915H54.9621C54.5453 14.7828 53.7892 13.287 52.7471 12.0093C52.3488 11.5608 51.8619 11.2043 51.3186 10.9632C50.7753 10.7222 50.1882 10.6022 49.5961 10.6113C48.8771 10.5891 48.1663 10.7731 47.5441 11.1426C46.9219 11.5121 46.4131 12.0523 46.0751 12.7021C45.1779 14.5076 44.7619 16.5233 44.8691 18.5458C44.8479 19.7692 44.9848 20.9902 45.2761 22.1769C45.4941 23.0427 45.8608 23.8619 46.3591 24.5962C46.7976 25.2028 47.3776 25.6873 48.0461 26.0055C48.725 26.3064 49.4583 26.4571 50.1981 26.4476C51.2929 26.4651 52.3655 26.13 53.2641 25.4897C54.2808 24.719 55.121 23.7306 55.7261 22.5934L56.7841 23.2474C56.4521 23.9558 56.0475 24.6262 55.5771 25.2471C55.1305 25.8217 54.6043 26.3265 54.0151 26.7454C53.3534 27.2138 52.6275 27.579 51.8611 27.8292C50.9633 28.1062 50.0287 28.2378 49.0911 28.2191" fill="white"/>
</mask>
<g mask="url(#mask1_8733_45051)">
<mask id="mask2_8733_45051" style="mask-type:luminance" maskUnits="userSpaceOnUse" x="-24" y="-25" width="158" height="106">
<path d="M-23.623 80.6333H133.955V-24.3291H-23.623V80.6333Z" fill="white"/>
</mask>
<g mask="url(#mask2_8733_45051)">
<path d="M36.564 5.90918H60.18V31.691H36.564V5.90918Z" fill="white"/>
</g>
</g>
<mask id="mask3_8733_45051" style="mask-type:luminance" maskUnits="userSpaceOnUse" x="56" y="8" width="17" height="20">
<path fill-rule="evenodd" clip-rule="evenodd" d="M72.7991 27.7325H65.3901V26.8114C65.5531 26.7951 65.7461 26.7736 65.9681 26.749C66.1382 26.7376 66.305 26.6946 66.4601 26.6221C66.6251 26.539 66.753 26.3949 66.8181 26.2189C66.903 25.9681 66.9404 25.7031 66.9281 25.438V19.5452C66.9777 18.861 66.8093 18.1787 66.4481 17.6007C66.2933 17.3892 66.09 17.2199 65.8561 17.1078C65.6222 16.9957 65.365 16.9442 65.1071 16.958C64.7933 16.9559 64.4813 17.0074 64.1841 17.1105C63.8905 17.2191 63.6127 17.3678 63.3581 17.5526C63.145 17.697 62.951 17.869 62.7811 18.0643C62.6411 18.2403 62.5221 18.3949 62.4231 18.53V25.2937C62.4142 25.5463 62.4518 25.7984 62.5341 26.0367C62.621 26.2276 62.7683 26.383 62.9521 26.4778C63.103 26.5665 63.2643 26.6353 63.4321 26.6825C63.6259 26.739 63.8234 26.781 64.0231 26.8084V27.7295H56.5401V26.8114C56.7531 26.7951 56.9581 26.7736 57.1551 26.749C57.34 26.7285 57.5219 26.6859 57.6971 26.6221C57.9204 26.5542 58.11 26.4015 58.2271 26.1954C58.3334 25.9586 58.3834 25.6994 58.3731 25.439V11.3968C58.3676 11.1013 58.3051 10.8098 58.1891 10.5391C58.0862 10.2653 57.9063 10.0288 57.6721 9.8596C57.4515 9.7308 57.2093 9.64542 56.9581 9.60785C56.6826 9.54628 56.4032 9.50422 56.1221 9.48197V8.56089L62.2381 8.2334L62.4221 8.43808V17.1033H62.4721L63.3081 16.3358C63.5955 16.0741 63.904 15.8375 64.2301 15.6286C64.598 15.4007 64.9961 15.2284 65.4121 15.1169C65.9292 14.9709 66.4636 14.8989 67.0001 14.903C67.552 14.8606 68.1064 14.9436 68.6233 15.1462C69.1402 15.3488 69.607 15.6659 69.9901 16.0748C70.6914 16.9382 71.0517 18.0389 71.0001 19.1604V25.3326C70.989 25.5879 71.0352 25.8424 71.1351 26.0766C71.2452 26.2796 71.4225 26.4357 71.6351 26.5167C71.7938 26.5888 71.958 26.6477 72.1261 26.6927C72.3446 26.7503 72.5668 26.7924 72.7911 26.8186L72.7991 27.7325Z" fill="white"/>
</mask>
<g mask="url(#mask3_8733_45051)">
<mask id="mask4_8733_45051" style="mask-type:luminance" maskUnits="userSpaceOnUse" x="-24" y="-25" width="158" height="106">
<path d="M-23.623 80.6324H133.955V-24.3301H-23.623V80.6324Z" fill="white"/>
</mask>
<g mask="url(#mask4_8733_45051)">
<path d="M52.7271 4.76172H76.1951V31.2149H52.7271V4.76172Z" fill="white"/>
</g>
</g>
<mask id="mask5_8733_45051" style="mask-type:luminance" maskUnits="userSpaceOnUse" x="72" y="14" width="15" height="15">
<path fill-rule="evenodd" clip-rule="evenodd" d="M85.0116 16.7279C85.6187 17.3079 86.0936 18.0175 86.4026 18.8065C86.7278 19.6391 86.8909 20.5288 86.8826 21.4254C86.8879 22.3304 86.725 23.2282 86.4026 24.0709C86.1038 24.8728 85.6329 25.5957 85.0246 26.1863C84.3559 26.8296 83.5633 27.3228 82.6976 27.6345C81.7088 27.9863 80.6673 28.1574 79.6206 28.14C78.6802 28.149 77.7448 28 76.8516 27.6989C76.0309 27.4138 75.2739 26.9643 74.6246 26.3767C73.9914 25.8011 73.4875 25.092 73.1476 24.2981C72.7768 23.4198 72.5921 22.4711 72.6056 21.5144C72.5895 20.5973 72.7485 19.6858 73.0736 18.831C73.3986 18.0343 73.8853 17.3175 74.5016 16.7279C75.1455 16.1175 75.9086 15.6539 76.7406 15.3678C77.7026 15.0293 78.7144 14.8631 79.7316 14.8766C80.7613 14.8568 81.7863 15.0231 82.7596 15.3678C83.5929 15.6596 84.3592 16.1225 85.0116 16.7279ZM81.8606 25.4556C82.0609 24.9038 82.1932 24.3287 82.2546 23.7434C82.3513 22.9662 82.3964 22.1832 82.3896 21.3998C82.3845 20.7263 82.3434 20.0536 82.2666 19.3847C82.216 18.7755 82.0921 18.175 81.8976 17.5968C81.7328 17.1151 81.4489 16.6853 81.0736 16.3493C80.7037 16.0382 80.235 15.8769 79.7566 15.8959C79.2458 15.8712 78.7451 16.0469 78.3566 16.3871C77.995 16.7401 77.7208 17.1762 77.5566 17.6592C77.3698 18.2049 77.2496 18.7721 77.1986 19.3479C77.1321 20.0133 77.0987 20.6818 77.0986 21.3507C77.0986 22.2656 77.1269 23.0253 77.1836 23.6298C77.2466 24.2463 77.3874 24.8517 77.6026 25.431C77.7626 25.9083 78.0427 26.334 78.4146 26.6653C78.7941 26.9767 79.2706 27.1376 79.7566 27.1187C80.2127 27.1306 80.6593 26.9842 81.0236 26.7032C81.408 26.3727 81.6973 25.9414 81.8606 25.4556Z" fill="white"/>
</mask>
<g mask="url(#mask5_8733_45051)">
<mask id="mask6_8733_45051" style="mask-type:luminance" maskUnits="userSpaceOnUse" x="-24" y="-25" width="158" height="106">
<path d="M-23.6235 80.6343H133.954V-24.3281H-23.6235V80.6343Z" fill="white"/>
</mask>
<g mask="url(#mask6_8733_45051)">
<path d="M69.2095 11.4004H90.2775V31.6159H69.2095V11.4004Z" fill="white"/>
</g>
</g>
<mask id="mask7_8733_45051" style="mask-type:luminance" maskUnits="userSpaceOnUse" x="86" y="8" width="9" height="20">
<path fill-rule="evenodd" clip-rule="evenodd" d="M94.4799 27.7325H86.7649V26.8114C86.9769 26.7951 87.1819 26.7736 87.3779 26.749C87.5632 26.7286 87.7454 26.686 87.9209 26.6221C88.1443 26.5542 88.3339 26.4015 88.4509 26.1954C88.5576 25.9587 88.608 25.6995 88.5979 25.439V11.4848C88.6 11.1787 88.5315 10.8765 88.3979 10.6026C88.2937 10.3481 88.1201 10.1296 87.8979 9.9732C87.6634 9.83317 87.411 9.7271 87.1479 9.65799C86.864 9.56574 86.5708 9.50669 86.2739 9.48197V8.56089L92.4639 8.2334L92.6489 8.43808V25.2763C92.6383 25.5381 92.693 25.7984 92.8079 26.0326C92.9277 26.2371 93.1092 26.3962 93.3249 26.486C93.4932 26.5645 93.6658 26.6329 93.8419 26.6907C94.0501 26.7552 94.2642 26.7974 94.4809 26.8166L94.4799 27.7325Z" fill="white"/>
</mask>
<g mask="url(#mask7_8733_45051)">
<mask id="mask8_8733_45051" style="mask-type:luminance" maskUnits="userSpaceOnUse" x="-24" y="-25" width="158" height="106">
<path d="M-23.624 80.6324H133.954V-24.3301H-23.624V80.6324Z" fill="white"/>
</mask>
<g mask="url(#mask8_8733_45051)">
<path d="M82.8779 4.76172H97.8779V31.2149H82.8779V4.76172Z" fill="white"/>
</g>
</g>
<mask id="mask9_8733_45051" style="mask-type:luminance" maskUnits="userSpaceOnUse" x="94" y="14" width="15" height="15">
<path fill-rule="evenodd" clip-rule="evenodd" d="M108.245 27.4714C107.829 27.6494 107.401 27.7968 106.965 27.9124C106.454 28.05 105.928 28.1188 105.4 28.1171C104.632 28.1709 103.863 28.0144 103.174 27.6638C102.702 27.3599 102.356 26.8894 102.201 26.3415H102.127C101.873 26.6043 101.601 26.8484 101.314 27.0722C101.058 27.273 100.782 27.4446 100.49 27.5839C100.132 27.7592 99.7562 27.8944 99.3697 27.9872C98.8804 28.0925 98.3806 28.1389 97.8807 28.1253C96.9947 28.1485 96.1301 27.8449 95.4447 27.2697C95.116 26.9924 94.8539 26.6414 94.6788 26.2439C94.5037 25.8464 94.4202 25.4131 94.4347 24.9773C94.4222 24.5053 94.4972 24.0351 94.6557 23.5916C94.7988 23.2125 95.0116 22.8651 95.2827 22.5682C95.5291 22.3 95.8161 22.0744 96.1327 21.8999C96.4801 21.7147 96.8377 21.5504 97.2037 21.4076C97.9424 21.1347 98.8284 20.8495 99.8617 20.552C100.636 20.3447 101.394 20.0754 102.127 19.7466V18.5369C102.127 18.3323 102.11 18.0498 102.078 17.707C102.056 17.4072 101.985 17.1132 101.869 16.8371C101.75 16.5652 101.563 16.3304 101.327 16.1565C101.04 15.9604 100.699 15.8635 100.355 15.8802C100.043 15.8712 99.7336 15.9265 99.4437 16.0429C99.2399 16.1254 99.046 16.2315 98.8657 16.3591C98.9148 16.6204 98.9847 16.8771 99.0747 17.1267C99.1849 17.4464 99.243 17.7825 99.2467 18.1214C99.2381 18.3071 99.2006 18.4902 99.1357 18.6638C99.0726 18.8567 98.962 19.0298 98.8147 19.1664C98.6263 19.3349 98.4094 19.4671 98.1747 19.5563C97.8287 19.666 97.4666 19.7131 97.1047 19.6955C96.5403 19.7382 95.9813 19.558 95.5427 19.1919C95.3679 19.0208 95.2304 18.8139 95.1392 18.5846C95.0481 18.3553 95.0053 18.1089 95.0137 17.8615C95.0152 17.6248 95.0638 17.3909 95.1567 17.1741C95.2495 16.9573 95.3846 16.7622 95.5537 16.6006C95.9428 16.2103 96.3974 15.8948 96.8957 15.6693C97.4643 15.4006 98.0637 15.2059 98.6797 15.0901C99.2948 14.9544 99.9216 14.8827 100.551 14.8762C101.283 14.8722 102.015 14.9228 102.741 15.0277C103.372 15.1086 103.982 15.3096 104.541 15.6202C105.055 15.9202 105.474 16.3659 105.747 16.9036C106.077 17.5788 106.234 18.3291 106.202 19.0835C106.202 20.0318 106.181 21.1576 106.14 22.4607C106.098 23.7639 106.082 24.6201 106.092 25.0295C106.078 25.3359 106.133 25.6415 106.252 25.9229C106.366 26.1409 106.548 26.3138 106.769 26.4142C106.977 26.4959 107.198 26.5385 107.421 26.54C107.721 26.5493 107.999 26.5534 108.246 26.5534L108.245 27.4714ZM102.128 20.9133C101.668 21.073 101.213 21.2579 100.762 21.468C100.368 21.6361 99.996 21.8519 99.6527 22.1107C99.3467 22.3493 99.102 22.6605 98.9397 23.0175C98.7586 23.4201 98.67 23.8598 98.6807 24.3029C98.6362 24.816 98.7911 25.3263 99.1117 25.7234C99.2545 25.8673 99.4239 25.9804 99.6101 26.0562C99.7963 26.1319 99.9954 26.1688 100.196 26.1645C100.583 26.1804 100.967 26.0839 101.304 25.8861C101.597 25.6949 101.859 25.4572 102.079 25.182L102.128 20.9133Z" fill="white"/>
</mask>
<g mask="url(#mask9_8733_45051)">
<mask id="mask10_8733_45051" style="mask-type:luminance" maskUnits="userSpaceOnUse" x="-24" y="-25" width="158" height="106">
<path d="M-23.623 80.6333H133.955V-24.3291H-23.623V80.6333Z" fill="white"/>
</mask>
<g mask="url(#mask10_8733_45051)">
<path d="M91.04 11.3994H111.64V31.6016H91.04V11.3994Z" fill="white"/>
</g>
</g>
<mask id="mask11_8733_45051" style="mask-type:luminance" maskUnits="userSpaceOnUse" x="11" y="2" width="10" height="18">
<path fill-rule="evenodd" clip-rule="evenodd" d="M14.0759 19.4816C12.4759 18.8123 11.3309 17.9056 11.5879 15.608C11.9329 12.5204 16.6739 8.98447 18.1879 7.23239C19.2619 5.99406 19.5089 2.9668 19.5089 2.9668C19.5089 2.9668 21.0959 6.33486 19.2519 9.14311C18.5059 10.2771 14.7069 14.0555 13.9209 16.4042C13.7221 16.8969 13.6326 17.4285 13.6587 17.9608C13.6848 18.4931 13.8259 19.0129 14.0719 19.4827" fill="white"/>
</mask>
<g mask="url(#mask11_8733_45051)">
<mask id="mask12_8733_45051" style="mask-type:luminance" maskUnits="userSpaceOnUse" x="-24" y="-25" width="158" height="106">
<path d="M-23.623 80.6333H133.955V-24.3291H-23.623V80.6333Z" fill="white"/>
</mask>
<g mask="url(#mask12_8733_45051)">
<path d="M8.15576 -0.508789H23.5428V22.9602H8.15576V-0.508789Z" fill="white"/>
</g>
</g>
<mask id="mask13_8733_45051" style="mask-type:luminance" maskUnits="userSpaceOnUse" x="8" y="0" width="10" height="17">
<path fill-rule="evenodd" clip-rule="evenodd" d="M11.3811 16.5791C9.78806 15.8812 8.51506 14.7493 8.81106 12.4548C9.21106 9.37429 14.0111 5.92333 15.5581 4.1999C16.6521 2.98102 16.9461 0.00390625 16.9461 0.00390625C16.9461 0.00390625 18.4751 3.40062 16.5831 6.1751C15.8201 7.29471 11.9561 11.0077 11.1291 13.339C10.9061 13.8583 10.8125 14.4261 10.8564 14.9915C10.9004 15.557 11.0807 16.1024 11.3811 16.5791Z" fill="white"/>
</mask>
<g mask="url(#mask13_8733_45051)">
<mask id="mask14_8733_45051" style="mask-type:luminance" maskUnits="userSpaceOnUse" x="-24" y="-25" width="158" height="106">
<path d="M-23.624 80.6324H133.954V-24.3301H-23.624V80.6324Z" fill="white"/>
</mask>
<g mask="url(#mask14_8733_45051)">
<path d="M5.36621 -3.47656H20.9202V20.0507H5.36621V-3.47656Z" fill="white"/>
</g>
</g>
<mask id="mask15_8733_45051" style="mask-type:luminance" maskUnits="userSpaceOnUse" x="15" y="16" width="10" height="18">
<path fill-rule="evenodd" clip-rule="evenodd" d="M21.8426 16.9697C23.4426 17.639 24.5876 18.5468 24.3306 20.8444C23.9856 23.932 19.2446 27.4679 17.7306 29.22C16.6576 30.4573 16.4096 33.4866 16.4096 33.4866C16.4096 33.4866 14.8236 30.1165 16.6676 27.3093C17.4126 26.1774 21.2126 22.3969 21.9986 20.0492C22.197 19.5563 22.2863 19.0245 22.2602 18.4921C22.2341 17.9597 22.0932 17.4398 21.8476 16.9697" fill="white"/>
</mask>
<g mask="url(#mask15_8733_45051)">
<mask id="mask16_8733_45051" style="mask-type:luminance" maskUnits="userSpaceOnUse" x="-24" y="-25" width="158" height="106">
<path d="M-23.6245 80.6333H133.953V-24.3291H-23.6245V80.6333Z" fill="white"/>
</mask>
<g mask="url(#mask16_8733_45051)">
<path d="M12.3735 13.4941H27.7615V36.9621H12.3735V13.4941Z" fill="white"/>
</g>
</g>
<mask id="mask17_8733_45051" style="mask-type:luminance" maskUnits="userSpaceOnUse" x="18" y="19" width="10" height="18">
<path fill-rule="evenodd" clip-rule="evenodd" d="M24.5419 19.8818C26.1349 20.5798 27.4079 21.7127 27.1119 24.0072C26.7119 27.0887 21.9119 30.5387 20.3649 32.2621C19.2699 33.4799 18.9769 36.4581 18.9769 36.4581C18.9769 36.4581 17.4479 33.0614 19.3409 30.2869C20.1049 29.1663 23.9679 25.4543 24.7939 23.123C25.0176 22.6037 25.1117 22.0357 25.0679 21.47C25.0241 20.9043 24.8427 20.3586 24.5419 19.8818Z" fill="white"/>
</mask>
<g mask="url(#mask17_8733_45051)">
<mask id="mask18_8733_45051" style="mask-type:luminance" maskUnits="userSpaceOnUse" x="-24" y="-25" width="158" height="106">
<path d="M-23.623 80.6324H133.955V-24.3301H-23.623V80.6324Z" fill="white"/>
</mask>
<g mask="url(#mask18_8733_45051)">
<path d="M14.998 16.4053H30.552V39.9326H14.998V16.4053Z" fill="white"/>
</g>
</g>
<mask id="mask19_8733_45051" style="mask-type:luminance" maskUnits="userSpaceOnUse" x="3" y="15" width="17" height="10">
<path fill-rule="evenodd" clip-rule="evenodd" d="M19.1858 22.2009C18.5318 23.8384 17.6458 25.0092 15.4008 24.7472C12.3838 24.3951 8.9288 19.5421 7.2168 17.9926C6.0078 16.8945 3.0498 16.6417 3.0498 16.6417C3.0498 16.6417 6.3418 15.0176 9.0848 16.9058C10.1928 17.6692 13.8848 21.5582 16.1798 22.3616C16.6612 22.565 17.1806 22.6566 17.7008 22.6299C18.2209 22.6032 18.7288 22.4588 19.1878 22.2071" fill="white"/>
</mask>
<g mask="url(#mask19_8733_45051)">
<mask id="mask20_8733_45051" style="mask-type:luminance" maskUnits="userSpaceOnUse" x="-24" y="-25" width="158" height="106">
<path d="M-23.623 80.6324H133.955V-24.3301H-23.623V80.6324Z" fill="white"/>
</mask>
<g mask="url(#mask20_8733_45051)">
<path d="M-0.347168 12.5117H22.5838V28.26H-0.347168V12.5117Z" fill="white"/>
</g>
</g>
<mask id="mask21_8733_45051" style="mask-type:luminance" maskUnits="userSpaceOnUse" x="0" y="18" width="17" height="10">
<path fill-rule="evenodd" clip-rule="evenodd" d="M16.3489 24.9645C15.6669 26.5948 14.5599 27.8976 12.3189 27.5947C9.30886 27.1853 5.93586 22.2729 4.25186 20.6897C3.06086 19.569 0.151855 19.2682 0.151855 19.2682C0.151855 19.2682 3.47086 17.7044 6.18186 19.6417C7.27686 20.4236 10.9039 24.377 13.1819 25.2224C13.6893 25.451 14.2443 25.5473 14.797 25.5024C15.3497 25.4576 15.8829 25.2721 16.3489 24.9645Z" fill="white"/>
</mask>
<g mask="url(#mask21_8733_45051)">
<mask id="mask22_8733_45051" style="mask-type:luminance" maskUnits="userSpaceOnUse" x="-24" y="-25" width="158" height="106">
<path d="M-23.624 80.6343H133.954V-24.3281H-23.624V80.6343Z" fill="white"/>
</mask>
<g mask="url(#mask22_8733_45051)">
<path d="M-3.24805 15.1963H19.741V31.1145H-3.24805V15.1963Z" fill="white"/>
</g>
</g>
<mask id="mask23_8733_45051" style="mask-type:luminance" maskUnits="userSpaceOnUse" x="16" y="11" width="17" height="10">
<path fill-rule="evenodd" clip-rule="evenodd" d="M16.7319 14.2533C17.3869 12.6097 18.2719 11.443 20.5179 11.706C23.5359 12.0591 26.9899 16.9111 28.7009 18.4605C29.9109 19.5587 32.8699 19.8125 32.8699 19.8125C32.8699 19.8125 29.5789 21.4356 26.8349 19.5484C25.7279 18.786 22.0349 14.897 19.7409 14.0926C19.2593 13.8896 18.7396 13.7982 18.2194 13.8251C17.6991 13.852 17.1912 13.9965 16.7319 14.2482" fill="white"/>
</mask>
<g mask="url(#mask23_8733_45051)">
<mask id="mask24_8733_45051" style="mask-type:luminance" maskUnits="userSpaceOnUse" x="-24" y="-25" width="158" height="106">
<path d="M-23.624 80.6343H133.954V-24.3281H-23.624V80.6343Z" fill="white"/>
</mask>
<g mask="url(#mask24_8733_45051)">
<path d="M13.335 8.19531H36.265V23.9436H13.335V8.19531Z" fill="white"/>
</g>
</g>
<mask id="mask25_8733_45051" style="mask-type:luminance" maskUnits="userSpaceOnUse" x="19" y="8" width="17" height="10">
<path fill-rule="evenodd" clip-rule="evenodd" d="M19.5757 11.4886C20.2577 9.85933 21.3647 8.5555 23.6057 8.85843C26.6167 9.26779 29.9887 14.1802 31.6727 15.7634C32.8637 16.883 35.7727 17.1839 35.7727 17.1839C35.7727 17.1839 32.4537 18.7477 29.7437 16.8114C28.6487 16.0305 25.0207 12.076 22.7437 11.2307C22.2363 11.0019 21.6813 10.9055 21.1285 10.9504C20.5758 10.9952 20.0425 11.1798 19.5767 11.4876" fill="white"/>
</mask>
<g mask="url(#mask25_8733_45051)">
<mask id="mask26_8733_45051" style="mask-type:luminance" maskUnits="userSpaceOnUse" x="-24" y="-25" width="158" height="106">
<path d="M-23.6235 80.6333H133.954V-24.3291H-23.6235V80.6333Z" fill="white"/>
</mask>
<g mask="url(#mask26_8733_45051)">
<path d="M16.1797 5.33984H39.1647V21.258H16.1797V5.33984Z" fill="white"/>
</g>
</g>
<mask id="mask27_8733_45051" style="mask-type:luminance" maskUnits="userSpaceOnUse" x="39" y="32" width="70" height="10">
<path fill-rule="evenodd" clip-rule="evenodd" d="M39.8687 39.247L39.9117 39.0874C40.0959 39.0825 40.274 39.0184 40.4207 38.9042C40.5543 38.7371 40.6444 38.5382 40.6827 38.326L41.8647 33.9017C41.9787 33.4821 41.9947 33.2099 41.9117 33.0891C41.8287 32.9684 41.5877 32.8988 41.1837 32.8845L41.2257 32.7258H46.0617L45.9137 33.4791L45.7647 34.2323H45.5647C45.6317 33.7298 45.5647 33.4074 45.3647 33.2662C44.8919 33.0767 44.382 33.0041 43.8767 33.0543H43.4257C43.3125 33.0444 43.1992 33.072 43.1027 33.1331C43.0198 33.2161 42.9643 33.3234 42.9437 33.4402L42.3557 35.6415H42.5067C42.9663 35.6743 43.4279 35.6261 43.8717 35.4993C44.1401 35.3018 44.3353 35.0172 44.4257 34.6918H44.6257L44.3077 35.8565L43.9937 37.0231H43.7937C43.8837 36.5326 43.863 36.2355 43.7317 36.1318C43.341 35.982 42.9214 35.928 42.5067 35.9741H42.2647L41.6837 38.1448C41.6007 38.461 41.5967 38.6688 41.6777 38.7722C41.7587 38.8755 41.9607 38.9236 42.2837 38.9206C42.8969 38.948 43.51 38.8642 44.0947 38.6729C44.5741 38.4121 44.9753 38.023 45.2557 37.5471L45.4217 37.6311L45.1117 38.4416L44.8037 39.2552H39.8727L39.8687 39.247ZM45.9687 39.247L46.8597 35.9025C46.9323 35.6296 46.9323 35.4563 46.8597 35.3826C46.6707 35.2876 46.4572 35.2561 46.2497 35.2926L46.2967 35.1135L47.0697 34.9804L47.8427 34.8433L47.8927 34.8914L47.2677 36.9832H47.3047C47.4905 36.6602 47.6942 36.3482 47.9147 36.0489C48.5093 35.2451 49.028 34.8433 49.4707 34.8433C49.5927 34.8251 49.7172 34.848 49.8254 34.9086C49.9336 34.9691 50.0197 35.064 50.0707 35.179C50.1526 35.5323 50.1292 35.9026 50.0037 36.2423L49.4187 38.4436C49.3812 38.5472 49.3702 38.6589 49.3867 38.7681C49.3949 38.8003 49.4142 38.8283 49.441 38.8471C49.4678 38.8659 49.5004 38.8742 49.5327 38.8704C49.6547 38.8496 49.7652 38.7841 49.8437 38.6862C50.0215 38.4952 50.184 38.2898 50.3297 38.0722L50.4627 38.195C50.2595 38.5176 50.0157 38.8114 49.7377 39.069C49.5749 39.2273 49.3619 39.3203 49.1377 39.3309C49.0469 39.3414 48.9552 39.3226 48.8754 39.2771C48.7956 39.2316 48.7317 39.1617 48.6927 39.0771C48.6172 38.838 48.6228 38.5798 48.7087 38.3444L49.3217 36.0407C49.3764 35.8761 49.3884 35.6998 49.3567 35.529C49.3472 35.4755 49.3191 35.4274 49.2775 35.3937C49.2359 35.3599 49.1837 35.3429 49.1307 35.3458C48.778 35.3458 48.3617 35.7101 47.8817 36.4388C47.5827 36.893 47.3297 37.3772 47.1267 37.8838C47.0701 38.0133 47.0207 38.1458 46.9787 38.2809C46.9277 38.4365 46.8787 38.5828 46.8447 38.723L46.7107 39.2409H45.9727L45.9687 39.247ZM51.1087 38.4887L51.9607 35.2926H51.3607C51.3239 35.297 51.2866 35.2913 51.2527 35.2762C51.2397 35.2649 51.2357 35.2373 51.2417 35.1943C51.2406 35.1588 51.2532 35.1243 51.2767 35.0981C51.3157 35.0678 51.3597 35.045 51.4067 35.0306C51.6871 34.918 51.9517 34.768 52.1937 34.5844C52.4279 34.3883 52.6384 34.1643 52.8207 33.9171C52.8478 33.8822 52.8794 33.8512 52.9147 33.825C52.9398 33.8065 52.9697 33.7961 53.0007 33.7953C53.0125 33.7951 53.0242 33.7983 53.0343 33.8047C53.0444 33.811 53.0525 33.8202 53.0577 33.8311C53.0632 33.844 53.066 33.858 53.066 33.8721C53.066 33.8861 53.0632 33.9001 53.0577 33.913L52.7767 34.9743H53.5377L53.4837 35.2936H52.6907L51.8107 38.591C51.7856 38.6647 51.7808 38.744 51.7967 38.8203C51.8064 38.8447 51.8237 38.8652 51.8459 38.8785C51.8682 38.8918 51.8941 38.8973 51.9197 38.894C51.9897 38.894 52.0857 38.8305 52.2107 38.6995C52.3904 38.5017 52.5575 38.2921 52.7107 38.0722L52.8447 38.1991C52.6348 38.5269 52.3852 38.826 52.1017 39.0894C51.929 39.251 51.7064 39.3456 51.4727 39.3565C51.3922 39.369 51.31 39.3561 51.2369 39.3196C51.1638 39.283 51.1034 39.2245 51.0637 39.1519C51.0088 38.9321 51.0221 38.7003 51.1017 38.4887H51.1087ZM55.0577 39.3565C54.88 39.3653 54.7026 39.3371 54.5359 39.2738C54.3692 39.2105 54.2167 39.1133 54.0877 38.9881C53.9642 38.8577 53.8681 38.7028 53.8053 38.5329C53.7426 38.3631 53.7144 38.1819 53.7227 38.0005C53.7199 37.8802 53.7286 37.7599 53.7487 37.6413C53.7684 37.5128 53.7944 37.3854 53.8267 37.2596C54.0285 36.6057 54.4207 36.0304 54.9507 35.6108C55.3996 35.1612 55.9901 34.8895 56.6167 34.8443C56.8329 34.8286 57.0476 34.8909 57.2237 35.0203C57.2937 35.0829 57.3487 35.1612 57.3844 35.249C57.4201 35.3369 57.4356 35.432 57.4297 35.5269C57.4132 35.7719 57.336 36.0086 57.2053 36.2145C57.0745 36.4204 56.8947 36.5889 56.6827 36.7038C56.0997 37.0814 55.4397 37.3167 54.7537 37.3916L54.6687 37.4008C54.6429 37.4988 54.6225 37.5982 54.6077 37.6986C54.5927 37.8003 54.5847 37.9028 54.5837 38.0056C54.5759 38.1279 54.5926 38.2506 54.6328 38.3661C54.6731 38.4815 54.736 38.5873 54.8177 38.677C54.9071 38.761 55.0122 38.8256 55.1266 38.8669C55.2411 38.9082 55.3625 38.9254 55.4837 38.9175C55.7168 38.9142 55.9457 38.8531 56.1507 38.7394C56.4264 38.5818 56.6812 38.3885 56.9087 38.1643L57.0397 38.2993C56.7491 38.6178 56.4117 38.8879 56.0397 39.0997C55.7378 39.2664 55.4007 39.3539 55.0577 39.3565ZM56.4347 35.0633C56.1433 35.0633 55.8157 35.2997 55.4517 35.7725C55.1321 36.1889 54.8892 36.6612 54.7347 37.1664L54.8147 37.1511C55.3275 37.0691 55.8103 36.8506 56.2147 36.5176C56.3787 36.3987 56.5146 36.2436 56.6124 36.0638C56.7102 35.8841 56.7673 35.6842 56.7797 35.4788C56.7865 35.3692 56.7558 35.2606 56.6927 35.1718C56.6592 35.1361 56.6185 35.1084 56.5733 35.0907C56.5282 35.0731 56.4798 35.0658 56.4317 35.0695L56.4347 35.0633ZM58.1897 39.247L59.0797 35.9025C59.1657 35.5812 59.1717 35.3826 59.0967 35.31C59.0217 35.2373 58.8067 35.2322 58.4517 35.2926L58.4987 35.1135L59.2317 34.9804L59.9637 34.8433L60.0137 34.8914L59.5217 36.8185C59.5217 36.841 59.5217 36.8512 59.5327 36.8512C59.5437 36.8512 59.5517 36.8359 59.5647 36.8133C59.6847 36.5677 59.8077 36.3334 59.9357 36.1133C60.4383 35.2666 60.887 34.8433 61.2817 34.8433C61.3621 34.8366 61.443 34.851 61.5165 34.8852C61.59 34.9194 61.6537 34.9722 61.7017 35.0387C61.7453 35.112 61.7724 35.1943 61.7811 35.2796C61.7897 35.3649 61.7797 35.4512 61.7517 35.532C61.7286 35.6275 61.6747 35.7123 61.5987 35.7725C61.5139 35.8283 61.4143 35.8558 61.3137 35.8513C61.244 35.8547 61.1749 35.8384 61.1137 35.8043C61.0537 35.7609 61.0058 35.7024 60.9747 35.6344C60.9552 35.5937 60.9288 35.557 60.8967 35.5259C60.8705 35.5047 60.8381 35.4931 60.8047 35.4931C60.5973 35.4931 60.3023 35.8657 59.9197 36.6107C59.6938 37.051 59.4935 37.5045 59.3197 37.9688C59.2643 38.1093 59.2067 38.2772 59.1467 38.4723C59.0867 38.6674 59.0317 38.8551 58.9817 39.0352L58.9267 39.246H58.1907L58.1897 39.247ZM65.1377 39.3565C65.0039 39.362 64.8707 39.3374 64.7473 39.2843C64.6239 39.2313 64.5134 39.1511 64.4237 39.0495C64.2373 38.8203 64.1405 38.5287 64.1517 38.2308C64.1517 38.1284 64.1677 38.0169 64.1847 37.8859C64.2032 37.7587 64.2286 37.6326 64.2607 37.5082C64.4556 36.7995 64.836 36.1587 65.3607 35.6548C65.7683 35.1775 66.343 34.8835 66.9607 34.8361C67.1078 34.8241 67.2551 34.8577 67.3833 34.9325C67.5116 35.0073 67.6148 35.12 67.6797 35.2557C67.7084 35.3111 67.7306 35.3699 67.7457 35.4307L67.8737 34.9129L68.5737 34.8259L67.6067 38.4426C67.5722 38.5452 67.5616 38.6545 67.5757 38.7619C67.5845 38.7944 67.6044 38.8225 67.6317 38.8413C67.659 38.86 67.692 38.8682 67.7247 38.8643C67.8457 38.8481 67.9573 38.7887 68.0397 38.6964C68.2099 38.5263 68.3645 38.3407 68.5016 38.1417L68.6347 38.2686C68.4404 38.5714 68.208 38.8466 67.9436 39.0874C67.7824 39.2358 67.5754 39.3217 67.3587 39.3299C67.2699 39.3398 67.1804 39.3208 67.1028 39.2756C67.0252 39.2304 66.9636 39.1613 66.9267 39.0782C66.855 38.8382 66.8624 38.5807 66.9477 38.3454L67.0867 37.8337C66.9486 38.0874 66.7876 38.3273 66.6057 38.5501C66.4346 38.7877 66.214 38.9834 65.9599 39.123C65.7059 39.2627 65.4247 39.3428 65.1367 39.3576L65.1377 39.3565ZM66.9866 35.0725C66.7686 35.1005 66.5591 35.1769 66.3729 35.2964C66.1867 35.4159 66.0282 35.5756 65.9087 35.7644C65.5285 36.2478 65.2531 36.8084 65.1007 37.409C65.063 37.5378 65.0339 37.6691 65.0137 37.802C64.9955 37.9133 64.9858 38.0258 64.9847 38.1387C64.9725 38.3333 65.0278 38.526 65.1407 38.6831C65.1942 38.748 65.2617 38.7992 65.3379 38.8328C65.4141 38.8664 65.4968 38.8813 65.5797 38.8766C65.7982 38.851 66.008 38.7744 66.193 38.6526C66.378 38.5309 66.5332 38.3673 66.6467 38.1745C67.034 37.632 67.3142 37.0174 67.4716 36.3651C67.5807 36.0572 67.595 35.7226 67.5126 35.4062C67.4735 35.2989 67.4008 35.2079 67.3058 35.1474C67.2108 35.0869 67.099 35.0602 66.9877 35.0715L66.9866 35.0725ZM73.0097 33.3327C73.0637 33.128 73.0527 33.0011 72.9747 32.951C72.7584 32.8806 72.5307 32.8548 72.3047 32.8752L72.3537 32.6962C72.6537 32.6655 72.9146 32.6337 73.1337 32.5938C73.3527 32.5539 73.6207 32.4976 73.9337 32.4219L73.9777 32.47L72.9716 36.2187L73.2337 35.838C73.3961 35.5632 73.6179 35.3302 73.8821 35.1568C74.1463 34.9835 74.4458 34.8745 74.7577 34.8382C74.9155 34.8301 75.0733 34.8557 75.221 34.9133C75.3687 34.971 75.5031 35.0593 75.6157 35.1728C75.7236 35.2912 75.8073 35.4305 75.8617 35.5826C75.9162 35.7346 75.9403 35.8963 75.9327 36.0581V36.0785C75.9314 36.1927 75.922 36.3066 75.9047 36.4193C75.8862 36.5466 75.8608 36.6726 75.8287 36.797C75.6221 37.5016 75.2049 38.1223 74.6357 38.5716C74.1385 39.0448 73.4929 39.3212 72.8147 39.3514C72.5562 39.3538 72.2996 39.3073 72.0577 39.2143C71.8542 39.1442 71.6726 39.0198 71.5317 38.854L73.0097 33.3327ZM72.8297 39.1263C73.3172 39.0874 73.7707 38.8554 74.0937 38.4795C74.5115 38.0761 74.8145 37.5643 74.9707 36.9986C75.0088 36.8544 75.0392 36.7082 75.0617 36.5606C75.0825 36.432 75.0932 36.302 75.0937 36.1717C75.1078 35.9444 75.043 35.7193 74.9107 35.5361C74.8458 35.4604 74.7648 35.4008 74.674 35.362C74.5832 35.3231 74.4849 35.306 74.3867 35.312C74.1628 35.339 73.9489 35.422 73.7638 35.5538C73.5788 35.6855 73.4283 35.8619 73.3257 36.0673C72.9983 36.5825 72.7419 37.1414 72.5637 37.7283L72.4547 38.1581C72.4103 38.3186 72.3769 38.4821 72.3547 38.6473C72.339 38.7308 72.347 38.817 72.3777 38.896L72.4067 38.9502C72.4576 39.0135 72.5231 39.0627 72.5974 39.0934C72.6716 39.1241 72.7521 39.1354 72.8316 39.1263H72.8297ZM77.8197 39.3555C77.6419 39.3641 77.4643 39.336 77.2974 39.2727C77.1306 39.2093 76.9779 39.1122 76.8486 38.9871C76.7254 38.8566 76.6295 38.7017 76.5669 38.5318C76.5043 38.362 76.4763 38.1808 76.4846 37.9995C76.4823 37.8792 76.491 37.7589 76.5107 37.6403C76.5304 37.5118 76.5564 37.3844 76.5887 37.2585C76.7911 36.6049 77.1831 36.0299 77.7127 35.6098C78.1617 35.1603 78.7521 34.8887 79.3787 34.8433C79.5952 34.8277 79.8102 34.89 79.9866 35.0193C80.0567 35.0819 80.1116 35.1602 80.1474 35.248C80.1831 35.3359 80.1986 35.4309 80.1927 35.5259C80.176 35.771 80.0986 36.0076 79.9677 36.2136C79.8368 36.4195 79.6568 36.5879 79.4447 36.7028C78.8617 37.0804 78.2017 37.3157 77.5157 37.3906L77.4317 37.3998C77.4059 37.4979 77.3852 37.5973 77.3697 37.6976C77.3547 37.7992 77.3467 37.9018 77.3457 38.0046C77.338 38.127 77.3549 38.2497 77.3953 38.3652C77.4357 38.4806 77.4988 38.5864 77.5807 38.676C77.6701 38.7599 77.7752 38.8245 77.8896 38.8659C78.0041 38.9072 78.1255 38.9244 78.2467 38.9165C78.4798 38.9131 78.7086 38.852 78.9137 38.7384C79.1895 38.5809 79.4442 38.3875 79.6717 38.1632L79.8036 38.2983C79.513 38.6167 79.1756 38.8867 78.8036 39.0986C78.5014 39.2653 78.164 39.3539 77.8206 39.3565L77.8197 39.3555ZM79.1967 35.0623C78.906 35.0623 78.5787 35.2987 78.2147 35.7715C77.8945 36.1875 77.6515 36.6599 77.4977 37.1654L77.5777 37.1501C78.0904 37.0678 78.5731 36.8493 78.9777 36.5166C79.1416 36.3975 79.2774 36.2425 79.3752 36.0627C79.473 35.883 79.5302 35.6831 79.5426 35.4778C79.5492 35.3681 79.518 35.2595 79.4547 35.1708C79.4212 35.1351 79.3805 35.1074 79.3353 35.0897C79.2902 35.072 79.2418 35.0648 79.1936 35.0684L79.1967 35.0623ZM80.9117 38.4877L81.7646 35.2915H81.1647C81.1282 35.2958 81.0913 35.2901 81.0577 35.2752C81.0447 35.2639 81.0407 35.2363 81.0467 35.1933C81.0459 35.1576 81.0588 35.1231 81.0827 35.0971C81.1213 35.0667 81.165 35.0438 81.2117 35.0295C81.4922 34.9166 81.7571 34.7666 81.9996 34.5833C82.2328 34.3867 82.4426 34.1628 82.6246 33.9161C82.6519 33.8813 82.6835 33.8503 82.7187 33.824C82.7436 33.8052 82.7737 33.7948 82.8047 33.7943C82.8165 33.794 82.8282 33.7973 82.8383 33.8036C82.8484 33.81 82.8565 33.8192 82.8616 33.8301C82.8672 33.843 82.87 33.8569 82.87 33.871C82.87 33.8851 82.8672 33.8991 82.8616 33.912L82.5807 34.9733H83.3427L83.2887 35.2926H82.4957L81.6157 38.59C81.5906 38.6637 81.5861 38.7431 81.6027 38.8192C81.612 38.8437 81.6292 38.8642 81.6513 38.8776C81.6734 38.8909 81.6992 38.8963 81.7247 38.8929C81.7947 38.8929 81.8907 38.8295 82.0167 38.6985C82.1964 38.5007 82.3635 38.2911 82.5167 38.0711L82.6497 38.198C82.4401 38.526 82.1904 38.8252 81.9067 39.0884C81.734 39.25 81.5114 39.3445 81.2776 39.3555C81.1972 39.368 81.115 39.3551 81.0419 39.3185C80.9689 39.282 80.9084 39.2235 80.8687 39.1508C80.8137 38.9311 80.827 38.6993 80.9067 38.4877H80.9117ZM83.6227 38.4877L84.4757 35.2915H83.8757C83.8392 35.2958 83.8023 35.2901 83.7687 35.2752C83.7557 35.2639 83.7517 35.2363 83.7577 35.1933C83.7572 35.1577 83.7701 35.1233 83.7937 35.0971C83.8323 35.0667 83.876 35.0438 83.9227 35.0295C84.2032 34.9166 84.4681 34.7666 84.7107 34.5833C84.9442 34.3872 85.154 34.1632 85.3357 33.9161C85.363 33.8814 85.3946 33.8504 85.4297 33.824C85.4546 33.8052 85.4847 33.7948 85.5157 33.7943C85.5277 33.794 85.5395 33.7972 85.5498 33.8035C85.56 33.8099 85.5683 33.8191 85.5737 33.8301C85.5792 33.843 85.582 33.8569 85.582 33.871C85.582 33.8851 85.5792 33.8991 85.5737 33.912L85.2926 34.9733H86.0547L85.9996 35.2926H85.2066L84.3267 38.59C84.3022 38.6638 84.2977 38.743 84.3137 38.8192C84.323 38.8437 84.3401 38.8642 84.3623 38.8776C84.3844 38.8909 84.4102 38.8963 84.4357 38.8929C84.5057 38.8929 84.6017 38.8295 84.7277 38.6985C84.9077 38.5009 85.0747 38.2913 85.2277 38.0711L85.3607 38.198C85.1513 38.5262 84.9016 38.8254 84.6177 39.0884C84.445 39.25 84.2224 39.3445 83.9887 39.3555C83.9086 39.3676 83.8267 39.3544 83.7541 39.3179C83.6814 39.2814 83.6213 39.2231 83.5816 39.1508C83.5251 38.9314 83.5377 38.6993 83.6177 38.4877H83.6227ZM87.5717 39.3555C87.3941 39.3642 87.2166 39.336 87.0499 39.2727C86.8832 39.2094 86.7307 39.1122 86.6017 38.9871C86.4782 38.8567 86.3821 38.7018 86.3193 38.5319C86.2565 38.3621 86.2284 38.1809 86.2366 37.9995C86.2347 37.8792 86.2434 37.759 86.2626 37.6403C86.2836 37.5052 86.3097 37.3793 86.3407 37.2585C86.5431 36.6049 86.9351 36.0299 87.4647 35.6098C87.9134 35.1605 88.5035 34.8889 89.1297 34.8433C89.3465 34.8276 89.5619 34.8898 89.7387 35.0193C89.8087 35.0819 89.8637 35.1602 89.8994 35.248C89.9351 35.3359 89.9506 35.4309 89.9447 35.5259C89.928 35.771 89.8506 36.0076 89.7197 36.2136C89.5888 36.4195 89.4088 36.5879 89.1967 36.7028C88.6138 37.0807 87.9537 37.316 87.2677 37.3906L87.1837 37.3998C87.1575 37.4978 87.1368 37.5972 87.1217 37.6976C87.1067 37.7992 87.0986 37.9018 87.0977 38.0046C87.09 38.1269 87.1068 38.2495 87.1471 38.365C87.1873 38.4804 87.2501 38.5862 87.3316 38.676C87.4212 38.7601 87.5265 38.8247 87.6411 38.8661C87.7557 38.9074 87.8774 38.9245 87.9987 38.9165C88.2314 38.9129 88.4599 38.8518 88.6647 38.7384C88.9405 38.5809 89.1952 38.3875 89.4227 38.1632L89.5547 38.2983C89.2643 38.617 88.9269 38.8871 88.5547 39.0986C88.2528 39.2654 87.9157 39.3539 87.5727 39.3565L87.5717 39.3555ZM88.9497 35.0623C88.6583 35.0623 88.3307 35.2987 87.9667 35.7715C87.6469 36.1877 87.4039 36.66 87.2496 37.1654L87.3297 37.1501C87.8425 37.068 88.3253 36.8496 88.7297 36.5166C88.8937 36.3976 89.0296 36.2426 89.1274 36.0628C89.2252 35.8831 89.2823 35.6831 89.2947 35.4778C89.3019 35.3682 89.2711 35.2594 89.2077 35.1708C89.1743 35.1352 89.1337 35.1076 89.0888 35.09C89.0439 35.0723 88.9957 35.0649 88.9477 35.0684L88.9497 35.0623ZM90.7037 39.246L91.5937 35.9015C91.6797 35.5801 91.6867 35.3816 91.6107 35.3089C91.5347 35.2363 91.3197 35.2311 90.9657 35.2915L91.0117 35.1124L91.7457 34.9794L92.4767 34.8423L92.5267 34.8904L92.0357 36.8174C92.0357 36.84 92.0357 36.8502 92.0457 36.8502C92.0557 36.8502 92.0647 36.8348 92.0777 36.8123C92.1977 36.5667 92.3217 36.3323 92.4487 36.1123C92.9513 35.2656 93.4 34.8423 93.7947 34.8423C93.8751 34.8355 93.956 34.85 94.0295 34.8842C94.103 34.9184 94.1667 34.9712 94.2147 35.0377C94.2588 35.1108 94.2862 35.1931 94.2948 35.2785C94.3035 35.3639 94.2932 35.4502 94.2646 35.531C94.2425 35.6269 94.1884 35.7119 94.1116 35.7715C94.0273 35.8274 93.928 35.8549 93.8277 35.8503C93.758 35.8535 93.6889 35.8372 93.6277 35.8032C93.5677 35.7602 93.52 35.7016 93.4897 35.6334C93.4699 35.5926 93.4431 35.5559 93.4107 35.5249C93.3843 35.5034 93.3514 35.4918 93.3177 35.4921C93.111 35.4921 92.8163 35.8646 92.4337 36.6097C92.2081 37.0501 92.0078 37.5036 91.8336 37.9678C91.7786 38.108 91.7227 38.2748 91.6597 38.4713C91.5967 38.6678 91.5427 38.8561 91.4957 39.0342L91.4397 39.245H90.7017L90.7037 39.246ZM96.9037 38.3526L98.1627 33.3327C98.2127 33.128 98.1977 33.0011 98.1217 32.951C97.9058 32.8806 97.6784 32.8548 97.4527 32.8752L97.4987 32.6962C97.7987 32.6655 98.0566 32.6337 98.2757 32.5938C98.4947 32.5539 98.7627 32.4976 99.0757 32.4219L99.1187 32.47L97.6187 38.4539C97.5824 38.5618 97.5744 38.6775 97.5957 38.7896C97.6078 38.8232 97.6307 38.8516 97.6607 38.8702C97.6907 38.8888 97.7259 38.8964 97.7607 38.8919C97.8962 38.8674 98.0181 38.7923 98.1027 38.6811C98.2997 38.4635 98.4802 38.2308 98.6427 37.9852L98.7787 38.1069C98.5686 38.4507 98.3165 38.7658 98.0287 39.0444C97.8554 39.2147 97.6277 39.3151 97.3876 39.3269C97.2922 39.3372 97.196 39.3189 97.1105 39.2742C97.0251 39.2295 96.9543 39.1603 96.9067 39.0751C96.8254 38.839 96.8254 38.5815 96.9067 38.3454L96.9037 38.3526ZM99.7626 38.3526L100.414 35.9035C100.488 35.6303 100.488 35.4573 100.414 35.3836C100.224 35.2887 100.01 35.2572 99.8017 35.2936L99.8497 35.1145L100.615 34.9814L101.377 34.8443L101.424 34.8924L100.471 38.4539C100.436 38.5557 100.427 38.6647 100.444 38.7711C100.452 38.8035 100.471 38.8318 100.498 38.8506C100.525 38.8694 100.558 38.8775 100.591 38.8735C100.712 38.8524 100.822 38.787 100.901 38.6893C101.078 38.4974 101.241 38.2922 101.388 38.0752L101.521 38.197C101.318 38.5206 101.075 38.8152 100.797 39.073C100.634 39.2312 100.421 39.3242 100.197 39.335C100.106 39.3452 100.014 39.3265 99.9334 39.2815C99.8531 39.2364 99.7883 39.1673 99.7477 39.0833C99.7114 38.9945 99.6934 38.8991 99.6947 38.8029C99.7014 38.6497 99.7256 38.4979 99.7667 38.3505L99.7626 38.3526ZM101.312 32.7176C101.376 32.7168 101.439 32.73 101.498 32.7565C101.557 32.783 101.609 32.8221 101.652 32.8712C101.744 32.9738 101.794 33.1092 101.791 33.2488C101.793 33.387 101.743 33.5209 101.652 33.6223C101.609 33.6713 101.557 33.7103 101.498 33.7368C101.439 33.7633 101.376 33.7766 101.312 33.7759C101.248 33.7766 101.184 33.7632 101.126 33.7368C101.067 33.7103 101.015 33.6713 100.973 33.6223C100.881 33.5208 100.832 33.3869 100.835 33.2488C100.831 33.1094 100.881 32.9739 100.973 32.8712C101.015 32.8221 101.067 32.783 101.126 32.7566C101.184 32.7301 101.248 32.7168 101.312 32.7176ZM103.926 35.2936L103.18 38.5388C103.052 39.2742 102.784 39.9767 102.391 40.6061C102.27 40.8127 102.101 40.9855 101.899 41.1089C101.697 41.2323 101.469 41.3025 101.234 41.3133C101.045 41.3194 100.86 41.2579 100.711 41.1393C100.645 41.0894 100.591 41.0247 100.553 40.9502C100.515 40.8757 100.495 40.7934 100.493 40.7095C100.489 40.6019 100.525 40.4969 100.593 40.4147C100.624 40.3768 100.662 40.3464 100.706 40.3257C100.75 40.305 100.797 40.2945 100.846 40.295C100.912 40.2905 100.978 40.3044 101.038 40.3352C101.097 40.366 101.147 40.4125 101.183 40.47C101.218 40.526 101.237 40.5912 101.237 40.6578C101.237 40.7244 101.218 40.7896 101.183 40.8456C101.163 40.8717 101.151 40.903 101.148 40.9357C101.145 40.9685 101.151 41.0015 101.166 41.0308C101.187 41.0572 101.214 41.0776 101.245 41.0901C101.275 41.1027 101.309 41.1069 101.342 41.1025C101.454 41.0968 101.562 41.06 101.655 40.996C101.748 40.932 101.822 40.8432 101.87 40.7392C102.06 40.3536 102.195 39.9416 102.27 39.5162L103.143 35.2915H102.281L102.348 34.9722H103.219C103.375 34.3461 103.633 33.7511 103.982 33.212C104.113 32.9952 104.294 32.8147 104.509 32.6866C104.724 32.5584 104.967 32.4865 105.216 32.4771C105.429 32.47 105.639 32.5319 105.816 32.6542C105.889 32.7017 105.95 32.7675 105.993 32.8455C106.035 32.9235 106.058 33.0111 106.059 33.1004C106.06 33.1572 106.051 33.2137 106.03 33.2665C106.01 33.3193 105.979 33.3672 105.94 33.4074C105.902 33.4469 105.857 33.4781 105.808 33.4991C105.758 33.52 105.704 33.5303 105.651 33.5292C105.583 33.5326 105.516 33.5148 105.459 33.4782C105.402 33.4416 105.356 33.388 105.33 33.3245C105.297 33.2582 105.283 33.1841 105.289 33.1102C105.295 33.0363 105.32 32.9653 105.362 32.9049C105.401 32.8405 105.405 32.7893 105.371 32.7504C105.314 32.706 105.242 32.6862 105.171 32.6951C104.903 32.6951 104.671 32.8998 104.461 33.3092C104.221 33.8393 104.062 34.404 103.99 34.9835H105.044L104.977 35.3028L103.926 35.2936ZM106.273 39.3576C106.095 39.3662 105.918 39.3381 105.751 39.2747C105.584 39.2114 105.432 39.1143 105.303 38.9891C105.179 38.8587 105.083 38.7038 105.02 38.534C104.958 38.3641 104.929 38.1829 104.938 38.0015C104.936 37.8812 104.944 37.761 104.964 37.6423C104.984 37.5138 105.01 37.3864 105.043 37.2606C105.244 36.6068 105.636 36.0315 106.166 35.6119C106.614 35.1626 107.204 34.8909 107.831 34.8453C108.047 34.8298 108.262 34.8921 108.439 35.0213C108.509 35.0837 108.564 35.1619 108.6 35.2498C108.636 35.3377 108.651 35.4329 108.645 35.5279C108.628 35.7731 108.551 36.0098 108.42 36.2158C108.289 36.4217 108.109 36.5901 107.897 36.7049C107.314 37.0827 106.654 37.318 105.968 37.3926L105.884 37.4018C105.858 37.4999 105.837 37.5993 105.822 37.6996C105.807 37.8013 105.799 37.9039 105.798 38.0066C105.79 38.129 105.807 38.2516 105.847 38.367C105.887 38.4824 105.95 38.5883 106.032 38.678C106.121 38.7621 106.226 38.8268 106.341 38.8681C106.456 38.9095 106.577 38.9266 106.699 38.9185C106.931 38.915 107.16 38.8539 107.365 38.7404C107.641 38.5831 107.895 38.3897 108.123 38.1653L108.255 38.3004C107.964 38.619 107.627 38.8891 107.255 39.1007C106.953 39.2674 106.616 39.355 106.273 39.3576ZM107.65 35.0643C107.359 35.0643 107.032 35.3007 106.668 35.7736C106.348 36.1897 106.105 36.6621 105.951 37.1674L106.031 37.1521C106.543 37.0701 107.026 36.8516 107.431 36.5186C107.595 36.3999 107.731 36.245 107.829 36.0651C107.927 35.8853 107.984 35.6853 107.996 35.4798C108.003 35.3702 107.972 35.2615 107.909 35.1728C107.875 35.1371 107.834 35.1095 107.789 35.0918C107.744 35.0741 107.696 35.0668 107.648 35.0705L107.65 35.0643Z" fill="white"/>
</mask>
<g mask="url(#mask27_8733_45051)">
<mask id="mask28_8733_45051" style="mask-type:luminance" maskUnits="userSpaceOnUse" x="-24" y="-25" width="158" height="106">
<path d="M-23.6235 80.6343H133.954V-24.3281H-23.6235V80.6343Z" fill="white"/>
</mask>
<g mask="url(#mask28_8733_45051)">
<path d="M36.4717 28.9521H112.039V44.7895H36.4717V28.9521Z" fill="white"/>
</g>
</g>
</g>
</svg>
