<svg width="24" height="24" viewBox="0 0 25 25" fill="none" xmlns="http://www.w3.org/2000/svg">
<path d="M9.29758 12.2042C8.28232 11.7797 7.53423 11.2491 7.69453 9.81644C7.90827 7.90624 10.9541 5.73073 11.9159 4.61644C12.6106 3.87358 12.7709 1.96338 12.7709 1.96338C12.7709 1.96338 13.7861 4.03277 12.6106 5.78379C12.1296 6.47358 9.72507 8.80828 9.19071 10.294C8.97697 10.8777 8.8701 11.5675 9.29758 12.2042Z" fill="white"/>
<path d="M7.53392 10.4C6.51865 9.97551 5.71712 9.28571 5.87743 7.85306C6.1446 5.94285 9.1904 3.8204 10.2057 2.75918C10.9003 2.01632 11.1141 0.15918 11.1141 0.15918C11.1141 0.15918 12.0759 2.28163 10.9003 3.97959C10.4194 4.66938 7.9614 6.95102 7.42705 8.43673C7.2133 8.96734 7.053 9.65714 7.53392 10.4Z" fill="white"/>
<path d="M14.2135 10.6655C15.2288 11.09 15.9769 11.6206 15.8166 13.0533C15.6028 14.9635 12.557 17.139 11.5952 18.2533C10.9005 18.9961 10.7402 20.9063 10.7402 20.9063C10.7402 20.9063 9.72498 18.837 10.9005 17.0859C11.3815 16.3961 13.786 14.0614 14.3204 12.5757C14.5341 11.9921 14.641 11.3023 14.2135 10.6655Z" fill="white"/>
<path d="M15.9771 12.4692C16.9923 12.8937 17.7939 13.5835 17.6336 15.0162C17.3664 16.9264 14.3206 19.0488 13.3053 20.1101C12.6107 20.8529 12.3969 22.7101 12.3969 22.7101C12.3969 22.7101 11.4351 20.5876 12.6107 18.8896C13.0916 18.1999 15.5496 15.9182 16.0839 14.4325C16.2977 13.9019 16.458 13.2121 15.9771 12.4692Z" fill="white"/>
<path d="M12.5571 13.9022C12.1296 14.9104 11.5953 15.6532 10.1525 15.494C8.22887 15.2818 6.03803 12.2573 4.9159 11.3022C4.1678 10.6124 2.24414 10.4532 2.24414 10.4532C2.24414 10.4532 4.32811 9.44505 6.09147 10.6124C6.78613 11.0899 9.13727 13.4777 10.6335 14.0083C11.1678 14.1675 11.9159 14.2736 12.5571 13.9022Z" fill="white"/>
<path d="M10.7402 15.5998C10.3127 16.608 9.61809 17.4039 8.17534 17.2447C6.25167 16.9794 4.11427 13.9549 3.04557 12.9468C2.29747 12.257 0.427246 12.0447 0.427246 12.0447C0.427246 12.0447 2.56465 11.0896 4.27457 12.257C4.96923 12.7345 7.26694 15.1753 8.76312 15.7059C9.24404 15.9712 9.99213 16.0774 10.7402 15.5998Z" fill="white"/>
<path d="M10.9541 8.96737C11.3816 7.9592 11.9159 7.21635 13.3587 7.37553C15.2823 7.58778 17.4732 10.6123 18.5953 11.5674C19.3434 12.2572 21.2671 12.4163 21.2671 12.4163C21.2671 12.4163 19.1831 13.4245 17.4197 12.2572C16.7251 11.7796 14.3739 9.39186 12.8778 8.86125C12.3434 8.70206 11.5953 8.59594 10.9541 8.96737Z" fill="white"/>
<path d="M12.771 7.26925C13.1985 6.26109 13.8931 5.46517 15.3359 5.62435C17.2595 5.88966 19.397 8.91415 20.4657 9.92231C21.2137 10.6121 23.084 10.8244 23.084 10.8244C23.084 10.8244 20.9466 11.7795 19.2366 10.6121C18.542 10.1346 16.2443 7.69374 14.7481 7.16313C14.2672 6.89782 13.5191 6.7917 12.771 7.26925Z" fill="white"/>
</svg>

