<svg width="24" height="25" viewBox="0 0 24 25" fill="none" xmlns="http://www.w3.org/2000/svg">
<path d="M7.28005 8.97999C7.49005 8.97999 7.69005 8.89999 7.85005 8.74999L11.19 5.40999V16.37C11.19 16.81 11.55 17.17 11.99 17.17C12.43 17.17 12.79 16.81 12.79 16.37V5.40999L16.13 8.74999C16.29 8.90999 16.49 8.97999 16.7 8.97999C16.91 8.97999 17.11 8.89999 17.27 8.74999C17.58 8.43999 17.58 7.92999 17.27 7.61999L12.55 2.90999C12.24 2.59999 11.73 2.59999 11.42 2.90999L6.72005 7.60999C6.41005 7.91999 6.41005 8.42999 6.72005 8.73999C6.88005 8.89999 7.08005 8.96999 7.29005 8.96999L7.28005 8.97999Z" fill="#2A55E5"/>
<path d="M21.2 11.25C20.76 11.25 20.4 11.61 20.4 12.05V19.29C20.4 20.17 19.68 20.89 18.8 20.89H5.2C4.32 20.89 3.6 20.17 3.6 19.29V12.05C3.6 11.61 3.24 11.25 2.8 11.25C2.36 11.25 2 11.61 2 12.05V19.29C2 21.06 3.44 22.49 5.2 22.49H18.79C20.56 22.49 21.99 21.05 21.99 19.29V12.05C21.99 11.61 21.63 11.25 21.19 11.25H21.2Z" fill="#2A55E5"/>
</svg>
